<svg aria-roledescription="class" role="graphics-document document" viewBox="4 4 684.2667236328125 1139" style="max-width: 684.2667236328125px;" class="classDiagram" xmlns="http://www.w3.org/2000/svg" width="100%" id="mermaidSvgId"><style>#mermaidSvgId{font-family:"trebuchet ms",verdana,arial,sans-serif;font-size:16px;fill:#333;}#mermaidSvgId .error-icon{fill:hsl(220.5882352941, 100%, 98.3333333333%);}#mermaidSvgId .error-text{fill:rgb(8.5000000002, 5.7500000001, 0);stroke:rgb(8.5000000002, 5.7500000001, 0);}#mermaidSvgId .edge-thickness-normal{stroke-width:1px;}#mermaidSvgId .edge-thickness-thick{stroke-width:3.5px;}#mermaidSvgId .edge-pattern-solid{stroke-dasharray:0;}#mermaidSvgId .edge-thickness-invisible{stroke-width:0;fill:none;}#mermaidSvgId .edge-pattern-dashed{stroke-dasharray:3;}#mermaidSvgId .edge-pattern-dotted{stroke-dasharray:2;}#mermaidSvgId .marker{fill:#0b0b0b;stroke:#0b0b0b;}#mermaidSvgId .marker.cross{stroke:#0b0b0b;}#mermaidSvgId svg{font-family:"trebuchet ms",verdana,arial,sans-serif;font-size:16px;}#mermaidSvgId p{margin:0;}#mermaidSvgId g.classGroup text{fill:hsl(40.5882352941, 60%, 83.3333333333%);stroke:none;font-family:"trebuchet ms",verdana,arial,sans-serif;font-size:10px;}#mermaidSvgId g.classGroup text .title{font-weight:bolder;}#mermaidSvgId .nodeLabel,#mermaidSvgId .edgeLabel{color:#333;}#mermaidSvgId .edgeLabel .label rect{fill:#fff4dd;}#mermaidSvgId .label text{fill:#333;}#mermaidSvgId .labelBkg{background:#fff4dd;}#mermaidSvgId .edgeLabel .label span{background:#fff4dd;}#mermaidSvgId .classTitle{font-weight:bolder;}#mermaidSvgId .node rect,#mermaidSvgId .node circle,#mermaidSvgId .node ellipse,#mermaidSvgId .node polygon,#mermaidSvgId .node path{fill:#fff4dd;stroke:hsl(40.5882352941, 60%, 83.3333333333%);stroke-width:1px;}#mermaidSvgId .divider{stroke:hsl(40.5882352941, 60%, 83.3333333333%);stroke-width:1;}#mermaidSvgId g.clickable{cursor:pointer;}#mermaidSvgId g.classGroup rect{fill:#fff4dd;stroke:hsl(40.5882352941, 60%, 83.3333333333%);}#mermaidSvgId g.classGroup line{stroke:hsl(40.5882352941, 60%, 83.3333333333%);stroke-width:1;}#mermaidSvgId .classLabel .box{stroke:none;stroke-width:0;fill:#fff4dd;opacity:0.5;}#mermaidSvgId .classLabel .label{fill:hsl(40.5882352941, 60%, 83.3333333333%);font-size:10px;}#mermaidSvgId .relation{stroke:#0b0b0b;stroke-width:1;fill:none;}#mermaidSvgId .dashed-line{stroke-dasharray:3;}#mermaidSvgId .dotted-line{stroke-dasharray:1 2;}#mermaidSvgId #compositionStart,#mermaidSvgId .composition{fill:#0b0b0b!important;stroke:#0b0b0b!important;stroke-width:1;}#mermaidSvgId #compositionEnd,#mermaidSvgId .composition{fill:#0b0b0b!important;stroke:#0b0b0b!important;stroke-width:1;}#mermaidSvgId #dependencyStart,#mermaidSvgId .dependency{fill:#0b0b0b!important;stroke:#0b0b0b!important;stroke-width:1;}#mermaidSvgId #dependencyStart,#mermaidSvgId .dependency{fill:#0b0b0b!important;stroke:#0b0b0b!important;stroke-width:1;}#mermaidSvgId #extensionStart,#mermaidSvgId .extension{fill:transparent!important;stroke:#0b0b0b!important;stroke-width:1;}#mermaidSvgId #extensionEnd,#mermaidSvgId .extension{fill:transparent!important;stroke:#0b0b0b!important;stroke-width:1;}#mermaidSvgId #aggregationStart,#mermaidSvgId .aggregation{fill:transparent!important;stroke:#0b0b0b!important;stroke-width:1;}#mermaidSvgId #aggregationEnd,#mermaidSvgId .aggregation{fill:transparent!important;stroke:#0b0b0b!important;stroke-width:1;}#mermaidSvgId #lollipopStart,#mermaidSvgId .lollipop{fill:#fff4dd!important;stroke:#0b0b0b!important;stroke-width:1;}#mermaidSvgId #lollipopEnd,#mermaidSvgId .lollipop{fill:#fff4dd!important;stroke:#0b0b0b!important;stroke-width:1;}#mermaidSvgId .edgeTerminals{font-size:11px;line-height:initial;}#mermaidSvgId .classTitleText{text-anchor:middle;font-size:18px;fill:#333;}#mermaidSvgId :root{--mermaid-font-family:"trebuchet ms",verdana,arial,sans-serif;}</style><g><defs><marker orient="auto" markerHeight="240" markerWidth="190" refY="7" refX="18" class="marker aggregation class" id="mermaidSvgId_class-aggregationStart"><path d="M 18,7 L9,13 L1,7 L9,1 Z"></path></marker></defs><defs><marker orient="auto" markerHeight="28" markerWidth="20" refY="7" refX="1" class="marker aggregation class" id="mermaidSvgId_class-aggregationEnd"><path d="M 18,7 L9,13 L1,7 L9,1 Z"></path></marker></defs><defs><marker orient="auto" markerHeight="240" markerWidth="190" refY="7" refX="18" class="marker extension class" id="mermaidSvgId_class-extensionStart"><path d="M 1,7 L18,13 V 1 Z"></path></marker></defs><defs><marker orient="auto" markerHeight="28" markerWidth="20" refY="7" refX="1" class="marker extension class" id="mermaidSvgId_class-extensionEnd"><path d="M 1,1 V 13 L18,7 Z"></path></marker></defs><defs><marker orient="auto" markerHeight="240" markerWidth="190" refY="7" refX="18" class="marker composition class" id="mermaidSvgId_class-compositionStart"><path d="M 18,7 L9,13 L1,7 L9,1 Z"></path></marker></defs><defs><marker orient="auto" markerHeight="28" markerWidth="20" refY="7" refX="1" class="marker composition class" id="mermaidSvgId_class-compositionEnd"><path d="M 18,7 L9,13 L1,7 L9,1 Z"></path></marker></defs><defs><marker orient="auto" markerHeight="240" markerWidth="190" refY="7" refX="6" class="marker dependency class" id="mermaidSvgId_class-dependencyStart"><path d="M 5,7 L9,13 L1,7 L9,1 Z"></path></marker></defs><defs><marker orient="auto" markerHeight="28" markerWidth="20" refY="7" refX="13" class="marker dependency class" id="mermaidSvgId_class-dependencyEnd"><path d="M 18,7 L9,13 L14,7 L9,1 Z"></path></marker></defs><defs><marker orient="auto" markerHeight="240" markerWidth="190" refY="7" refX="13" class="marker lollipop class" id="mermaidSvgId_class-lollipopStart"><circle r="6" cy="7" cx="7" fill="transparent" stroke="black"></circle></marker></defs><defs><marker orient="auto" markerHeight="240" markerWidth="190" refY="7" refX="1" class="marker lollipop class" id="mermaidSvgId_class-lollipopEnd"><circle r="6" cy="7" cx="7" fill="transparent" stroke="black"></circle></marker></defs></g><g class="subgraphs"></g><g class="nodes"><g transform="translate(337.3583450317383, 164.5)" id="classId-ApplicationUser-78" class="node default"><g class="basic label-container"><path style="" fill="#fff4dd" stroke-width="0" stroke="none" d="M-111.95833587646484 -152.5 L111.95833587646484 -152.5 L111.95833587646484 152.5 L-111.95833587646484 152.5"></path><path style="" fill="none" stroke-width="1.3" stroke="hsl(40.5882352941, 60%, 83.3333333333%)" d="M-111.95833587646484 -152.5 C-65.67087799357319 -152.5, -19.383420110681527 -152.5, 111.95833587646484 -152.5 M-111.95833587646484 -152.5 C-45.363533212792504 -152.5, 21.231269450879836 -152.5, 111.95833587646484 -152.5 M111.95833587646484 -152.5 C111.95833587646484 -40.0821166870778, 111.95833587646484 72.3357666258444, 111.95833587646484 152.5 M111.95833587646484 -152.5 C111.95833587646484 -55.04862132134406, 111.95833587646484 42.402757357311884, 111.95833587646484 152.5 M111.95833587646484 152.5 C38.021577524442066 152.5, -35.91518082758071 152.5, -111.95833587646484 152.5 M111.95833587646484 152.5 C66.22999042953245 152.5, 20.50164498260007 152.5, -111.95833587646484 152.5 M-111.95833587646484 152.5 C-111.95833587646484 37.234619579172346, -111.95833587646484 -78.03076084165531, -111.95833587646484 -152.5 M-111.95833587646484 152.5 C-111.95833587646484 77.28677856399325, -111.95833587646484 2.073557127986504, -111.95833587646484 -152.5"></path></g><g transform="translate(0, -132.5)" class="annotation-group text"></g><g transform="translate(-59.16666793823242, -132.5)" class="label-group text"><g transform="translate(0,-9.5)" style="font-weight: bolder" class="label"><g><rect style="stroke: none" class="background"></rect><text style="" y="-10.1"><tspan font-weight="" dy="1.1em" y="-0.1em" x="0" class="text-outer-tspan"><tspan font-weight="" class="text-inner-tspan" font-style="normal">ApplicationUser</tspan></tspan></text></g></g></g><g transform="translate(-99.95833587646484, -89.5)" class="members-group text"><g transform="translate(0,-9.5)" style="" class="label"><g><rect style="stroke: none" class="background"></rect><text style="" y="-10.1"><tspan dy="1.1em" y="-0.1em" x="0" class="text-outer-tspan">- String FullName</tspan></text></g></g><g transform="translate(0,12.5)" style="" class="label"><g><rect style="stroke: none" class="background"></rect><text style="" y="-10.1"><tspan dy="1.1em" y="-0.1em" x="0" class="text-outer-tspan">- bool IsAdmin</tspan></text></g></g><g transform="translate(0,34.5)" style="" class="label"><g><rect style="stroke: none" class="background"></rect><text style="" y="-10.1"><tspan dy="1.1em" y="-0.1em" x="0" class="text-outer-tspan">- String Type</tspan></text></g></g><g transform="translate(0,56.5)" style="" class="label"><g><rect style="stroke: none" class="background"></rect><text style="" y="-10.1"><tspan dy="1.1em" y="-0.1em" x="0" class="text-outer-tspan">- String Address</tspan></text></g></g><g transform="translate(0,78.5)" style="" class="label"><g><rect style="stroke: none" class="background"></rect><text style="" y="-10.1"><tspan dy="1.1em" y="-0.1em" x="0" class="text-outer-tspan">- String ContactInfo</tspan></text></g></g></g><g transform="translate(-99.95833587646484, 41.5)" class="methods-group text"><g transform="translate(0,-9.5)" style="" class="label"><g><rect style="stroke: none" class="background"></rect><text style="" y="-10.1"><tspan dy="1.1em" y="-0.1em" x="0" class="text-outer-tspan">+ createUser()</tspan></text></g></g><g transform="translate(0,12.5)" style="" class="label"><g><rect style="stroke: none" class="background"></rect><text style="" y="-10.1"><tspan dy="1.1em" y="-0.1em" x="0" class="text-outer-tspan">+ readUser()</tspan></text></g></g><g transform="translate(0,34.5)" style="" class="label"><g><rect style="stroke: none" class="background"></rect><text style="" y="-10.1"><tspan dy="1.1em" y="-0.1em" x="0" class="text-outer-tspan">+ updateUser()</tspan></text></g></g><g transform="translate(0,56.5)" style="" class="label"><g><rect style="stroke: none" class="background"></rect><text style="" y="-10.1"><tspan dy="1.1em" y="-0.1em" x="0" class="text-outer-tspan">+ deleteUser()</tspan></text></g></g><g transform="translate(0,78.5)" style="" class="label"><g><rect style="stroke: none" class="background"></rect><text style="" y="-10.1"><tspan dy="1.1em" y="-0.1em" x="0" class="text-outer-tspan">+ authenticate()</tspan></text></g></g></g><g style="" class="divider"><path style="" fill="none" stroke-width="1.3" stroke="hsl(40.5882352941, 60%, 83.3333333333%)" d="M-111.95833587646484 -109.5 C-49.53468635154208 -109.5, 12.888963173380688 -109.5, 111.95833587646484 -109.5 M-111.95833587646484 -109.5 C-52.08477454001282 -109.5, 7.788786796439197 -109.5, 111.95833587646484 -109.5"></path></g><g style="" class="divider"><path style="" fill="none" stroke-width="1.3" stroke="hsl(40.5882352941, 60%, 83.3333333333%)" d="M-111.95833587646484 21.5 C-25.359977682399744 21.5, 61.238380511665355 21.5, 111.95833587646484 21.5 M-111.95833587646484 21.5 C-36.871386542599595 21.5, 38.215562791265654 21.5, 111.95833587646484 21.5"></path></g></g><g transform="translate(101.20000457763672, 208.5)" id="classId-Role-79" class="node default"><g class="basic label-container"><path style="" fill="#fff4dd" stroke-width="0" stroke="none" d="M-89.20000457763672 -108.5 L89.20000457763672 -108.5 L89.20000457763672 108.5 L-89.20000457763672 108.5"></path><path style="" fill="none" stroke-width="1.3" stroke="hsl(40.5882352941, 60%, 83.3333333333%)" d="M-89.20000457763672 -108.5 C-38.03275160595067 -108.5, 13.134501365735375 -108.5, 89.20000457763672 -108.5 M-89.20000457763672 -108.5 C-35.93275102483993 -108.5, 17.334502527956857 -108.5, 89.20000457763672 -108.5 M89.20000457763672 -108.5 C89.20000457763672 -31.991292268324486, 89.20000457763672 44.51741546335103, 89.20000457763672 108.5 M89.20000457763672 -108.5 C89.20000457763672 -64.5915375568776, 89.20000457763672 -20.683075113755194, 89.20000457763672 108.5 M89.20000457763672 108.5 C46.85585769413316 108.5, 4.5117108106295944 108.5, -89.20000457763672 108.5 M89.20000457763672 108.5 C41.265180983971 108.5, -6.669642609694719 108.5, -89.20000457763672 108.5 M-89.20000457763672 108.5 C-89.20000457763672 44.00484952459075, -89.20000457763672 -20.490300950818494, -89.20000457763672 -108.5 M-89.20000457763672 108.5 C-89.20000457763672 36.65615854381865, -89.20000457763672 -35.1876829123627, -89.20000457763672 -108.5"></path></g><g transform="translate(0, -88.5)" class="annotation-group text"></g><g transform="translate(-16.366666793823242, -88.5)" class="label-group text"><g transform="translate(0,-9.5)" style="font-weight: bolder" class="label"><g><rect style="stroke: none" class="background"></rect><text style="" y="-10.1"><tspan font-weight="" dy="1.1em" y="-0.1em" x="0" class="text-outer-tspan"><tspan font-weight="" class="text-inner-tspan" font-style="normal">Role</tspan></tspan></text></g></g></g><g transform="translate(-77.20000457763672, -45.5)" class="members-group text"><g transform="translate(0,-9.5)" style="" class="label"><g><rect style="stroke: none" class="background"></rect><text style="" y="-10.1"><tspan dy="1.1em" y="-0.1em" x="0" class="text-outer-tspan">- String Name</tspan></text></g></g><g transform="translate(0,12.5)" style="" class="label"><g><rect style="stroke: none" class="background"></rect><text style="" y="-10.1"><tspan dy="1.1em" y="-0.1em" x="0" class="text-outer-tspan">- String Description</tspan></text></g></g></g><g transform="translate(-77.20000457763672, 19.5)" class="methods-group text"><g transform="translate(0,-9.5)" style="" class="label"><g><rect style="stroke: none" class="background"></rect><text style="" y="-10.1"><tspan dy="1.1em" y="-0.1em" x="0" class="text-outer-tspan">+ createRole()</tspan></text></g></g><g transform="translate(0,12.5)" style="" class="label"><g><rect style="stroke: none" class="background"></rect><text style="" y="-10.1"><tspan dy="1.1em" y="-0.1em" x="0" class="text-outer-tspan">+ readRole()</tspan></text></g></g><g transform="translate(0,34.5)" style="" class="label"><g><rect style="stroke: none" class="background"></rect><text style="" y="-10.1"><tspan dy="1.1em" y="-0.1em" x="0" class="text-outer-tspan">+ updateRole()</tspan></text></g></g><g transform="translate(0,56.5)" style="" class="label"><g><rect style="stroke: none" class="background"></rect><text style="" y="-10.1"><tspan dy="1.1em" y="-0.1em" x="0" class="text-outer-tspan">+ deleteRole()</tspan></text></g></g></g><g style="" class="divider"><path style="" fill="none" stroke-width="1.3" stroke="hsl(40.5882352941, 60%, 83.3333333333%)" d="M-89.20000457763672 -65.5 C-20.09714569062342 -65.5, 49.00571319638988 -65.5, 89.20000457763672 -65.5 M-89.20000457763672 -65.5 C-42.99819997628051 -65.5, 3.203604625075698 -65.5, 89.20000457763672 -65.5"></path></g><g style="" class="divider"><path style="" fill="none" stroke-width="1.3" stroke="hsl(40.5882352941, 60%, 83.3333333333%)" d="M-89.20000457763672 -0.5 C-46.30418525706435 -0.5, -3.4083659364919754 -0.5, 89.20000457763672 -0.5 M-89.20000457763672 -0.5 C-39.383610400027365 -0.5, 10.432783777581989 -0.5, 89.20000457763672 -0.5"></path></g></g><g transform="translate(134.12222798665366, 507.5)" id="classId-UserRole-80" class="node default"><g class="basic label-container"><path style="" fill="#fff4dd" stroke-width="0" stroke="none" d="M-98.76667022705078 -97.5 L98.76667022705078 -97.5 L98.76667022705078 97.5 L-98.76667022705078 97.5"></path><path style="" fill="none" stroke-width="1.3" stroke="hsl(40.5882352941, 60%, 83.3333333333%)" d="M-98.76667022705078 -97.5 C-56.37015388366787 -97.5, -13.973637540284955 -97.5, 98.76667022705078 -97.5 M-98.76667022705078 -97.5 C-43.479181644733224 -97.5, 11.808306937584334 -97.5, 98.76667022705078 -97.5 M98.76667022705078 -97.5 C98.76667022705078 -57.212755669419906, 98.76667022705078 -16.92551133883981, 98.76667022705078 97.5 M98.76667022705078 -97.5 C98.76667022705078 -50.84372678907154, 98.76667022705078 -4.187453578143078, 98.76667022705078 97.5 M98.76667022705078 97.5 C52.020414860342754 97.5, 5.274159493634727 97.5, -98.76667022705078 97.5 M98.76667022705078 97.5 C26.40577524622823 97.5, -45.95511973459432 97.5, -98.76667022705078 97.5 M-98.76667022705078 97.5 C-98.76667022705078 53.97616592840028, -98.76667022705078 10.452331856800555, -98.76667022705078 -97.5 M-98.76667022705078 97.5 C-98.76667022705078 56.81210447214734, -98.76667022705078 16.12420894429468, -98.76667022705078 -97.5"></path></g><g transform="translate(0, -77.5)" class="annotation-group text"></g><g transform="translate(-33.25, -77.5)" class="label-group text"><g transform="translate(0,-9.5)" style="font-weight: bolder" class="label"><g><rect style="stroke: none" class="background"></rect><text style="" y="-10.1"><tspan font-weight="" dy="1.1em" y="-0.1em" x="0" class="text-outer-tspan"><tspan font-weight="" class="text-inner-tspan" font-style="normal">UserRole</tspan></tspan></text></g></g></g><g transform="translate(-86.76667022705078, -34.5)" class="members-group text"><g transform="translate(0,-9.5)" style="" class="label"><g><rect style="stroke: none" class="background"></rect><text style="" y="-10.1"><tspan dy="1.1em" y="-0.1em" x="0" class="text-outer-tspan">- String UserId</tspan></text></g></g><g transform="translate(0,12.5)" style="" class="label"><g><rect style="stroke: none" class="background"></rect><text style="" y="-10.1"><tspan dy="1.1em" y="-0.1em" x="0" class="text-outer-tspan">- String RoleId</tspan></text></g></g></g><g transform="translate(-86.76667022705078, 30.5)" class="methods-group text"><g transform="translate(0,-9.5)" style="" class="label"><g><rect style="stroke: none" class="background"></rect><text style="" y="-10.1"><tspan dy="1.1em" y="-0.1em" x="0" class="text-outer-tspan">+ assignRole()</tspan></text></g></g><g transform="translate(0,12.5)" style="" class="label"><g><rect style="stroke: none" class="background"></rect><text style="" y="-10.1"><tspan dy="1.1em" y="-0.1em" x="0" class="text-outer-tspan">+ removeRole()</tspan></text></g></g><g transform="translate(0,34.5)" style="" class="label"><g><rect style="stroke: none" class="background"></rect><text style="" y="-10.1"><tspan dy="1.1em" y="-0.1em" x="0" class="text-outer-tspan">+ getRolesForUser()</tspan></text></g></g></g><g style="" class="divider"><path style="" fill="none" stroke-width="1.3" stroke="hsl(40.5882352941, 60%, 83.3333333333%)" d="M-98.76667022705078 -54.5 C-20.754209375447388 -54.5, 57.258251476156005 -54.5, 98.76667022705078 -54.5 M-98.76667022705078 -54.5 C-57.43984222898451 -54.5, -16.11301423091824 -54.5, 98.76667022705078 -54.5"></path></g><g style="" class="divider"><path style="" fill="none" stroke-width="1.3" stroke="hsl(40.5882352941, 60%, 83.3333333333%)" d="M-98.76667022705078 10.5 C-23.880506039069587 10.5, 51.00565814891161 10.5, 98.76667022705078 10.5 M-98.76667022705078 10.5 C-46.9272710568752 10.5, 4.912128113300383 10.5, 98.76667022705078 10.5"></path></g></g><g transform="translate(406.5611241658529, 573.5)" id="classId-Product-81" class="node default"><g class="basic label-container"><path style="" fill="#fff4dd" stroke-width="0" stroke="none" d="M-95.6500015258789 -163.5 L95.6500015258789 -163.5 L95.6500015258789 163.5 L-95.6500015258789 163.5"></path><path style="" fill="none" stroke-width="1.3" stroke="hsl(40.5882352941, 60%, 83.3333333333%)" d="M-95.6500015258789 -163.5 C-36.32645974613339 -163.5, 22.99708203361213 -163.5, 95.6500015258789 -163.5 M-95.6500015258789 -163.5 C-22.46532170233222 -163.5, 50.71935812121447 -163.5, 95.6500015258789 -163.5 M95.6500015258789 -163.5 C95.6500015258789 -84.7791663869286, 95.6500015258789 -6.058332773857188, 95.6500015258789 163.5 M95.6500015258789 -163.5 C95.6500015258789 -38.99835193609202, 95.6500015258789 85.50329612781596, 95.6500015258789 163.5 M95.6500015258789 163.5 C50.26676676354024 163.5, 4.883532001201573 163.5, -95.6500015258789 163.5 M95.6500015258789 163.5 C57.19627094572423 163.5, 18.742540365569553 163.5, -95.6500015258789 163.5 M-95.6500015258789 163.5 C-95.6500015258789 54.33093362784666, -95.6500015258789 -54.83813274430668, -95.6500015258789 -163.5 M-95.6500015258789 163.5 C-95.6500015258789 94.62450634477477, -95.6500015258789 25.749012689549545, -95.6500015258789 -163.5"></path></g><g transform="translate(0, -143.5)" class="annotation-group text"></g><g transform="translate(-29.266666412353516, -143.5)" class="label-group text"><g transform="translate(0,-9.5)" style="font-weight: bolder" class="label"><g><rect style="stroke: none" class="background"></rect><text style="" y="-10.1"><tspan font-weight="" dy="1.1em" y="-0.1em" x="0" class="text-outer-tspan"><tspan font-weight="" class="text-inner-tspan" font-style="normal">Product</tspan></tspan></text></g></g></g><g transform="translate(-83.6500015258789, -100.5)" class="members-group text"><g transform="translate(0,-9.5)" style="" class="label"><g><rect style="stroke: none" class="background"></rect><text style="" y="-10.1"><tspan dy="1.1em" y="-0.1em" x="0" class="text-outer-tspan">- String Name</tspan></text></g></g><g transform="translate(0,12.5)" style="" class="label"><g><rect style="stroke: none" class="background"></rect><text style="" y="-10.1"><tspan dy="1.1em" y="-0.1em" x="0" class="text-outer-tspan">- String Description</tspan></text></g></g><g transform="translate(0,34.5)" style="" class="label"><g><rect style="stroke: none" class="background"></rect><text style="" y="-10.1"><tspan dy="1.1em" y="-0.1em" x="0" class="text-outer-tspan">- float Price</tspan></text></g></g><g transform="translate(0,56.5)" style="" class="label"><g><rect style="stroke: none" class="background"></rect><text style="" y="-10.1"><tspan dy="1.1em" y="-0.1em" x="0" class="text-outer-tspan">- int CategoryId</tspan></text></g></g></g><g transform="translate(-83.6500015258789, 8.5)" class="methods-group text"><g transform="translate(0,-9.5)" style="" class="label"><g><rect style="stroke: none" class="background"></rect><text style="" y="-10.1"><tspan dy="1.1em" y="-0.1em" x="0" class="text-outer-tspan">+ createProduct()</tspan></text></g></g><g transform="translate(0,12.5)" style="" class="label"><g><rect style="stroke: none" class="background"></rect><text style="" y="-10.1"><tspan dy="1.1em" y="-0.1em" x="0" class="text-outer-tspan">+ readProduct()</tspan></text></g></g><g transform="translate(0,34.5)" style="" class="label"><g><rect style="stroke: none" class="background"></rect><text style="" y="-10.1"><tspan dy="1.1em" y="-0.1em" x="0" class="text-outer-tspan">+ updateProduct()</tspan></text></g></g><g transform="translate(0,56.5)" style="" class="label"><g><rect style="stroke: none" class="background"></rect><text style="" y="-10.1"><tspan dy="1.1em" y="-0.1em" x="0" class="text-outer-tspan">+ deleteProduct()</tspan></text></g></g><g transform="translate(0,78.5)" style="" class="label"><g><rect style="stroke: none" class="background"></rect><text style="" y="-10.1"><tspan dy="1.1em" y="-0.1em" x="0" class="text-outer-tspan">+ calculatePrice()</tspan></text></g></g><g transform="translate(0,100.5)" style="" class="label"><g><rect style="stroke: none" class="background"></rect><text style="" y="-10.1"><tspan dy="1.1em" y="-0.1em" x="0" class="text-outer-tspan">+ getMaxPrice()</tspan></text></g></g><g transform="translate(0,122.5)" style="" class="label"><g><rect style="stroke: none" class="background"></rect><text style="" y="-10.1"><tspan dy="1.1em" y="-0.1em" x="0" class="text-outer-tspan">+ getMinPrice()</tspan></text></g></g></g><g style="" class="divider"><path style="" fill="none" stroke-width="1.3" stroke="hsl(40.5882352941, 60%, 83.3333333333%)" d="M-95.6500015258789 -120.5 C-25.505807589578808 -120.5, 44.63838634672129 -120.5, 95.6500015258789 -120.5 M-95.6500015258789 -120.5 C-31.867705719384887 -120.5, 31.914590087109133 -120.5, 95.6500015258789 -120.5"></path></g><g style="" class="divider"><path style="" fill="none" stroke-width="1.3" stroke="hsl(40.5882352941, 60%, 83.3333333333%)" d="M-95.6500015258789 -11.5 C-29.363280234311105 -11.5, 36.923441057256696 -11.5, 95.6500015258789 -11.5 M-95.6500015258789 -11.5 C-29.503931345295385 -11.5, 36.64213883528814 -11.5, 95.6500015258789 -11.5"></path></g></g><g transform="translate(582.2916870117188, 208.5)" id="classId-Category-82" class="node default"><g class="basic label-container"><path style="" fill="#fff4dd" stroke-width="0" stroke="none" d="M-97.97500610351562 -108.5 L97.97500610351562 -108.5 L97.97500610351562 108.5 L-97.97500610351562 108.5"></path><path style="" fill="none" stroke-width="1.3" stroke="hsl(40.5882352941, 60%, 83.3333333333%)" d="M-97.97500610351562 -108.5 C-54.73942778492718 -108.5, -11.503849466338735 -108.5, 97.97500610351562 -108.5 M-97.97500610351562 -108.5 C-42.564516735708864 -108.5, 12.845972632097897 -108.5, 97.97500610351562 -108.5 M97.97500610351562 -108.5 C97.97500610351562 -22.058481239531545, 97.97500610351562 64.38303752093691, 97.97500610351562 108.5 M97.97500610351562 -108.5 C97.97500610351562 -54.41143153432624, 97.97500610351562 -0.32286306865248093, 97.97500610351562 108.5 M97.97500610351562 108.5 C22.64239687309717 108.5, -52.690212357321286 108.5, -97.97500610351562 108.5 M97.97500610351562 108.5 C45.77434515213148 108.5, -6.426315799252663 108.5, -97.97500610351562 108.5 M-97.97500610351562 108.5 C-97.97500610351562 60.48004834460984, -97.97500610351562 12.460096689219682, -97.97500610351562 -108.5 M-97.97500610351562 108.5 C-97.97500610351562 53.296299504047234, -97.97500610351562 -1.9074009919055328, -97.97500610351562 -108.5"></path></g><g transform="translate(0, -88.5)" class="annotation-group text"></g><g transform="translate(-33.150001525878906, -88.5)" class="label-group text"><g transform="translate(0,-9.5)" style="font-weight: bolder" class="label"><g><rect style="stroke: none" class="background"></rect><text style="" y="-10.1"><tspan font-weight="" dy="1.1em" y="-0.1em" x="0" class="text-outer-tspan"><tspan font-weight="" class="text-inner-tspan" font-style="normal">Category</tspan></tspan></text></g></g></g><g transform="translate(-85.97500610351562, -45.5)" class="members-group text"><g transform="translate(0,-9.5)" style="" class="label"><g><rect style="stroke: none" class="background"></rect><text style="" y="-10.1"><tspan dy="1.1em" y="-0.1em" x="0" class="text-outer-tspan">- String Name</tspan></text></g></g><g transform="translate(0,12.5)" style="" class="label"><g><rect style="stroke: none" class="background"></rect><text style="" y="-10.1"><tspan dy="1.1em" y="-0.1em" x="0" class="text-outer-tspan">- String Description</tspan></text></g></g></g><g transform="translate(-85.97500610351562, 19.5)" class="methods-group text"><g transform="translate(0,-9.5)" style="" class="label"><g><rect style="stroke: none" class="background"></rect><text style="" y="-10.1"><tspan dy="1.1em" y="-0.1em" x="0" class="text-outer-tspan">+ createCategory()</tspan></text></g></g><g transform="translate(0,12.5)" style="" class="label"><g><rect style="stroke: none" class="background"></rect><text style="" y="-10.1"><tspan dy="1.1em" y="-0.1em" x="0" class="text-outer-tspan">+ readCategory()</tspan></text></g></g><g transform="translate(0,34.5)" style="" class="label"><g><rect style="stroke: none" class="background"></rect><text style="" y="-10.1"><tspan dy="1.1em" y="-0.1em" x="0" class="text-outer-tspan">+ updateCategory()</tspan></text></g></g><g transform="translate(0,56.5)" style="" class="label"><g><rect style="stroke: none" class="background"></rect><text style="" y="-10.1"><tspan dy="1.1em" y="-0.1em" x="0" class="text-outer-tspan">+ deleteCategory()</tspan></text></g></g></g><g style="" class="divider"><path style="" fill="none" stroke-width="1.3" stroke="hsl(40.5882352941, 60%, 83.3333333333%)" d="M-97.97500610351562 -65.5 C-27.314860951416364 -65.5, 43.3452842006829 -65.5, 97.97500610351562 -65.5 M-97.97500610351562 -65.5 C-52.181975970318895 -65.5, -6.388945837122165 -65.5, 97.97500610351562 -65.5"></path></g><g style="" class="divider"><path style="" fill="none" stroke-width="1.3" stroke="hsl(40.5882352941, 60%, 83.3333333333%)" d="M-97.97500610351562 -0.5 C-54.705777399970586 -0.5, -11.436548696425547 -0.5, 97.97500610351562 -0.5 M-97.97500610351562 -0.5 C-52.60682152492168 -0.5, -7.2386369463277305 -0.5, 97.97500610351562 -0.5"></path></g></g><g transform="translate(406.5611241658529, 982.5)" id="classId-ProductEntity-83" class="node default"><g class="basic label-container"><path style="" fill="#fff4dd" stroke-width="0" stroke="none" d="M-110.67916870117188 -152.5 L110.67916870117188 -152.5 L110.67916870117188 152.5 L-110.67916870117188 152.5"></path><path style="" fill="none" stroke-width="1.3" stroke="hsl(40.5882352941, 60%, 83.3333333333%)" d="M-110.67916870117188 -152.5 C-22.8935500164891 -152.5, 64.89206866819367 -152.5, 110.67916870117188 -152.5 M-110.67916870117188 -152.5 C-40.26024226216842 -152.5, 30.158684176835038 -152.5, 110.67916870117188 -152.5 M110.67916870117188 -152.5 C110.67916870117188 -38.68311127988757, 110.67916870117188 75.13377744022486, 110.67916870117188 152.5 M110.67916870117188 -152.5 C110.67916870117188 -79.01750172785583, 110.67916870117188 -5.53500345571166, 110.67916870117188 152.5 M110.67916870117188 152.5 C47.20463110972318 152.5, -16.269906481725513 152.5, -110.67916870117188 152.5 M110.67916870117188 152.5 C32.14621068855622 152.5, -46.38674732405943 152.5, -110.67916870117188 152.5 M-110.67916870117188 152.5 C-110.67916870117188 70.75441367680268, -110.67916870117188 -10.99117264639463, -110.67916870117188 -152.5 M-110.67916870117188 152.5 C-110.67916870117188 36.516332468399355, -110.67916870117188 -79.46733506320129, -110.67916870117188 -152.5"></path></g><g transform="translate(0, -132.5)" class="annotation-group text"></g><g transform="translate(-51.54166793823242, -132.5)" class="label-group text"><g transform="translate(0,-9.5)" style="font-weight: bolder" class="label"><g><rect style="stroke: none" class="background"></rect><text style="" y="-10.1"><tspan font-weight="" dy="1.1em" y="-0.1em" x="0" class="text-outer-tspan"><tspan font-weight="" class="text-inner-tspan" font-style="normal">ProductEntity</tspan></tspan></text></g></g></g><g transform="translate(-98.67916870117188, -89.5)" class="members-group text"><g transform="translate(0,-9.5)" style="" class="label"><g><rect style="stroke: none" class="background"></rect><text style="" y="-10.1"><tspan dy="1.1em" y="-0.1em" x="0" class="text-outer-tspan">- int ProductId</tspan></text></g></g><g transform="translate(0,12.5)" style="" class="label"><g><rect style="stroke: none" class="background"></rect><text style="" y="-10.1"><tspan dy="1.1em" y="-0.1em" x="0" class="text-outer-tspan">- int EntityId</tspan></text></g></g><g transform="translate(0,34.5)" style="" class="label"><g><rect style="stroke: none" class="background"></rect><text style="" y="-10.1"><tspan dy="1.1em" y="-0.1em" x="0" class="text-outer-tspan">- Date DateAdded</tspan></text></g></g><g transform="translate(0,56.5)" style="" class="label"><g><rect style="stroke: none" class="background"></rect><text style="" y="-10.1"><tspan dy="1.1em" y="-0.1em" x="0" class="text-outer-tspan">- float Price</tspan></text></g></g><g transform="translate(0,78.5)" style="" class="label"><g><rect style="stroke: none" class="background"></rect><text style="" y="-10.1"><tspan dy="1.1em" y="-0.1em" x="0" class="text-outer-tspan">- bool IsAvailable</tspan></text></g></g></g><g transform="translate(-98.67916870117188, 41.5)" class="methods-group text"><g transform="translate(0,-9.5)" style="" class="label"><g><rect style="stroke: none" class="background"></rect><text style="" y="-10.1"><tspan dy="1.1em" y="-0.1em" x="0" class="text-outer-tspan">+ createEntity()</tspan></text></g></g><g transform="translate(0,12.5)" style="" class="label"><g><rect style="stroke: none" class="background"></rect><text style="" y="-10.1"><tspan dy="1.1em" y="-0.1em" x="0" class="text-outer-tspan">+ readEntity()</tspan></text></g></g><g transform="translate(0,34.5)" style="" class="label"><g><rect style="stroke: none" class="background"></rect><text style="" y="-10.1"><tspan dy="1.1em" y="-0.1em" x="0" class="text-outer-tspan">+ updateEntity()</tspan></text></g></g><g transform="translate(0,56.5)" style="" class="label"><g><rect style="stroke: none" class="background"></rect><text style="" y="-10.1"><tspan dy="1.1em" y="-0.1em" x="0" class="text-outer-tspan">+ deleteEntity()</tspan></text></g></g><g transform="translate(0,78.5)" style="" class="label"><g><rect style="stroke: none" class="background"></rect><text style="" y="-10.1"><tspan dy="1.1em" y="-0.1em" x="0" class="text-outer-tspan">+ checkAvailability()</tspan></text></g></g></g><g style="" class="divider"><path style="" fill="none" stroke-width="1.3" stroke="hsl(40.5882352941, 60%, 83.3333333333%)" d="M-110.67916870117188 -109.5 C-38.90933622250098 -109.5, 32.86049625616991 -109.5, 110.67916870117188 -109.5 M-110.67916870117188 -109.5 C-23.38032101848418 -109.5, 63.91852666420351 -109.5, 110.67916870117188 -109.5"></path></g><g style="" class="divider"><path style="" fill="none" stroke-width="1.3" stroke="hsl(40.5882352941, 60%, 83.3333333333%)" d="M-110.67916870117188 21.5 C-49.284751579429795 21.5, 12.109665542312285 21.5, 110.67916870117188 21.5 M-110.67916870117188 21.5 C-51.48686795748827 21.5, 7.705432786195331 21.5, 110.67916870117188 21.5"></path></g></g></g><g class="edges edgePaths"><path marker-end="url(#mermaidSvgId_class-dependencyEnd)" style=";" class="edge-thickness-normal edge-pattern-solid relation" id="id_ApplicationUser_Product_1_0" d="M374.678,317L374.678,404"></path><path marker-end="url(#mermaidSvgId_class-dependencyEnd)" style=";" class="edge-thickness-normal edge-pattern-solid relation" id="id_ApplicationUser_UserRole_2_0" d="M300.039,317L300.039,328.75C300.039,340.5,300.039,364,299.677,376.221C299.315,388.443,298.591,389.386,297.758,390.219C296.925,391.052,295.982,391.776,275.011,392.138C254.041,392.5,213.043,392.5,192.072,392.862C171.102,393.224,170.159,393.948,169.325,394.781C168.492,395.614,167.768,396.557,167.406,398.112C167.044,399.667,167.044,401.833,167.044,402.917L167.044,404"></path><path marker-end="url(#mermaidSvgId_class-dependencyEnd)" style=";" class="edge-thickness-normal edge-pattern-solid relation" id="id_Role_UserRole_3_0" d="M101.2,317L101.2,404"></path><path marker-end="url(#mermaidSvgId_class-dependencyEnd)" style=";" class="edge-thickness-normal edge-pattern-solid relation" id="id_Category_Product_4_0" d="M582.292,317L582.292,328.75C582.292,340.5,582.292,364,581.93,376.221C581.568,388.443,580.844,389.386,580.011,390.219C579.177,391.052,578.234,391.776,555.455,392.138C532.676,392.5,488.06,392.5,465.281,392.862C442.502,393.224,441.559,393.948,440.726,394.781C439.892,395.614,439.168,396.557,438.806,398.112C438.444,399.667,438.444,401.833,438.444,402.917L438.444,404"></path><path marker-end="url(#mermaidSvgId_class-dependencyEnd)" style=";" class="edge-thickness-normal edge-pattern-solid relation" id="id_Product_ProductEntity_5_0" d="M406.561,737L406.561,824"></path></g><g class="edgeLabels"><g transform="translate(374.53612391153973, 363.5)" class="edgeLabel"><g transform="translate(-19.858333587646484, -11.5)" class="label"><g><rect height="23" width="39.71666717529297" y="-0.9999996423721313" x="-2" style="" class="background"></rect><text style="" y="-10.1"><tspan dy="1.1em" y="-0.1em" x="0" class="text-outer-tspan"><tspan font-weight="normal" class="text-inner-tspan" font-style="normal">owns</tspan></tspan></text></g></g></g><g transform="translate(299.85556634267175, 363.5)" class="edgeLabel"><g transform="translate(-13.816666603088379, -11.5)" class="label"><g><rect height="23" width="27.633333206176758" y="-0.9999996423721313" x="-2" style="" class="background"></rect><text style="" y="-10.1"><tspan dy="1.1em" y="-0.1em" x="0" class="text-outer-tspan"><tspan font-weight="normal" class="text-inner-tspan" font-style="normal">has</tspan></tspan></text></g></g></g><g transform="translate(100.75000381469727, 363.5)" class="edgeLabel"><g transform="translate(-28.049999237060547, -11.5)" class="label"><g><rect height="23" width="56.099998474121094" y="-0.9999996423721313" x="-2" style="" class="background"></rect><text style="" y="-10.1"><tspan dy="1.1em" y="-0.1em" x="0" class="text-outer-tspan"><tspan font-weight="normal" class="text-inner-tspan" font-style="normal">defines</tspan></tspan></text></g></g></g><g transform="translate(582.2083530426025, 363.5)" class="edgeLabel"><g transform="translate(-31.41666603088379, -11.5)" class="label"><g><rect height="23" width="62.83333206176758" y="-0.9999996423721313" x="-2" style="" class="background"></rect><text style="" y="-10.1"><tspan dy="1.1em" y="-0.1em" x="0" class="text-outer-tspan"><tspan font-weight="normal" class="text-inner-tspan" font-style="normal">includes</tspan></tspan></text></g></g></g><g transform="translate(406.4611237843832, 783.5)" class="edgeLabel"><g transform="translate(-31.899999618530273, -11.5)" class="label"><g><rect height="23" width="63.79999923706055" y="-0.9999996423721313" x="-2" style="" class="background"></rect><text style="" y="-10.1"><tspan dy="1.1em" y="-0.1em" x="0" class="text-outer-tspan"><tspan font-weight="normal" class="text-inner-tspan" font-style="normal">contains</tspan></tspan></text></g></g></g><g transform="translate(359.67779016194663, 334.4999998611886)" class="edgeTerminals"><g transform="translate(-6, -6)" class="inner"><text style=""><tspan class="row" x="0" dy="1em" xml:space="preserve">1</tspan></text></g></g><g transform="translate(285.0388998697917, 334.5000001116071)" class="edgeTerminals"><g transform="translate(-6, -6)" class="inner"><text style=""><tspan class="row" x="0" dy="1em" xml:space="preserve">1</tspan></text></g></g><g transform="translate(86.20000228881848, 334.4999980381557)" class="edgeTerminals"><g transform="translate(-6, -6)" class="inner"><text style=""><tspan class="row" x="0" dy="1em" xml:space="preserve">1</tspan></text></g></g><g transform="translate(567.2916885058594, 334.50000128069195)" class="edgeTerminals"><g transform="translate(-6, -6)" class="inner"><text style=""><tspan class="row" x="0" dy="1em" xml:space="preserve">1</tspan></text></g></g><g transform="translate(391.56112208292654, 754.4999982146345)" class="edgeTerminals"><g transform="translate(-6, -6)" class="inner"><text style=""><tspan class="row" x="0" dy="1em" xml:space="preserve">1</tspan></text></g></g><g transform="translate(384.67779016194663, 387.4999998611886)" class="edgeTerminals"><g transform="translate(-5, -6)" class="inner"></g><text style=""><tspan class="row" x="0" dy="1em" xml:space="preserve">*</tspan></text></g><g transform="translate(181.40105283858557, 406.85660129484614)" class="edgeTerminals"><g transform="translate(-5, -6)" class="inner"></g><text style=""><tspan class="row" x="0" dy="1em" xml:space="preserve">*</tspan></text></g><g transform="translate(111.20000228881823, 387.4999980381557)" class="edgeTerminals"><g transform="translate(-5, -6)" class="inner"></g><text style=""><tspan class="row" x="0" dy="1em" xml:space="preserve">*</tspan></text></g><g transform="translate(452.80106011798057, 406.85660232152213)" class="edgeTerminals"><g transform="translate(-5, -6)" class="inner"></g><text style=""><tspan class="row" x="0" dy="1em" xml:space="preserve">*</tspan></text></g><g transform="translate(416.5611220829263, 807.4999982146345)" class="edgeTerminals"><g transform="translate(-5, -6)" class="inner"></g><text style=""><tspan class="row" x="0" dy="1em" xml:space="preserve">*</tspan></text></g></g></svg>