<svg aria-roledescription="class" role="graphics-document document" viewBox="4 4 684.2667236328125 1139" style="max-width: 684.2667236328125px;" class="classDiagram" xmlns="http://www.w3.org/2000/svg" width="100%" id="mermaidSvgId"><style>#mermaidSvgId{font-family:"trebuchet ms",verdana,arial,sans-serif;font-size:16px;fill:#000000;}#mermaidSvgId .error-icon{fill:#552222;}#mermaidSvgId .error-text{fill:#552222;stroke:#552222;}#mermaidSvgId .edge-thickness-normal{stroke-width:1px;}#mermaidSvgId .edge-thickness-thick{stroke-width:3.5px;}#mermaidSvgId .edge-pattern-solid{stroke-dasharray:0;}#mermaidSvgId .edge-thickness-invisible{stroke-width:0;fill:none;}#mermaidSvgId .edge-pattern-dashed{stroke-dasharray:3;}#mermaidSvgId .edge-pattern-dotted{stroke-dasharray:2;}#mermaidSvgId .marker{fill:#666;stroke:#666;}#mermaidSvgId .marker.cross{stroke:#666;}#mermaidSvgId svg{font-family:"trebuchet ms",verdana,arial,sans-serif;font-size:16px;}#mermaidSvgId p{margin:0;}#mermaidSvgId g.classGroup text{fill:#999;stroke:none;font-family:"trebuchet ms",verdana,arial,sans-serif;font-size:10px;}#mermaidSvgId g.classGroup text .title{font-weight:bolder;}#mermaidSvgId .nodeLabel,#mermaidSvgId .edgeLabel{color:#111111;}#mermaidSvgId .edgeLabel .label rect{fill:#eee;}#mermaidSvgId .label text{fill:#111111;}#mermaidSvgId .labelBkg{background:#eee;}#mermaidSvgId .edgeLabel .label span{background:#eee;}#mermaidSvgId .classTitle{font-weight:bolder;}#mermaidSvgId .node rect,#mermaidSvgId .node circle,#mermaidSvgId .node ellipse,#mermaidSvgId .node polygon,#mermaidSvgId .node path{fill:#eee;stroke:#999;stroke-width:1px;}#mermaidSvgId .divider{stroke:#999;stroke-width:1;}#mermaidSvgId g.clickable{cursor:pointer;}#mermaidSvgId g.classGroup rect{fill:#eee;stroke:#999;}#mermaidSvgId g.classGroup line{stroke:#999;stroke-width:1;}#mermaidSvgId .classLabel .box{stroke:none;stroke-width:0;fill:#eee;opacity:0.5;}#mermaidSvgId .classLabel .label{fill:#999;font-size:10px;}#mermaidSvgId .relation{stroke:#666;stroke-width:1;fill:none;}#mermaidSvgId .dashed-line{stroke-dasharray:3;}#mermaidSvgId .dotted-line{stroke-dasharray:1 2;}#mermaidSvgId #compositionStart,#mermaidSvgId .composition{fill:#666!important;stroke:#666!important;stroke-width:1;}#mermaidSvgId #compositionEnd,#mermaidSvgId .composition{fill:#666!important;stroke:#666!important;stroke-width:1;}#mermaidSvgId #dependencyStart,#mermaidSvgId .dependency{fill:#666!important;stroke:#666!important;stroke-width:1;}#mermaidSvgId #dependencyStart,#mermaidSvgId .dependency{fill:#666!important;stroke:#666!important;stroke-width:1;}#mermaidSvgId #extensionStart,#mermaidSvgId .extension{fill:transparent!important;stroke:#666!important;stroke-width:1;}#mermaidSvgId #extensionEnd,#mermaidSvgId .extension{fill:transparent!important;stroke:#666!important;stroke-width:1;}#mermaidSvgId #aggregationStart,#mermaidSvgId .aggregation{fill:transparent!important;stroke:#666!important;stroke-width:1;}#mermaidSvgId #aggregationEnd,#mermaidSvgId .aggregation{fill:transparent!important;stroke:#666!important;stroke-width:1;}#mermaidSvgId #lollipopStart,#mermaidSvgId .lollipop{fill:#eee!important;stroke:#666!important;stroke-width:1;}#mermaidSvgId #lollipopEnd,#mermaidSvgId .lollipop{fill:#eee!important;stroke:#666!important;stroke-width:1;}#mermaidSvgId .edgeTerminals{font-size:11px;line-height:initial;}#mermaidSvgId .classTitleText{text-anchor:middle;font-size:18px;fill:#000000;}#mermaidSvgId :root{--mermaid-font-family:"trebuchet ms",verdana,arial,sans-serif;}</style><g><defs><marker orient="auto" markerHeight="240" markerWidth="190" refY="7" refX="18" class="marker aggregation class" id="mermaidSvgId_class-aggregationStart"><path d="M 18,7 L9,13 L1,7 L9,1 Z"></path></marker></defs><defs><marker orient="auto" markerHeight="28" markerWidth="20" refY="7" refX="1" class="marker aggregation class" id="mermaidSvgId_class-aggregationEnd"><path d="M 18,7 L9,13 L1,7 L9,1 Z"></path></marker></defs><defs><marker orient="auto" markerHeight="240" markerWidth="190" refY="7" refX="18" class="marker extension class" id="mermaidSvgId_class-extensionStart"><path d="M 1,7 L18,13 V 1 Z"></path></marker></defs><defs><marker orient="auto" markerHeight="28" markerWidth="20" refY="7" refX="1" class="marker extension class" id="mermaidSvgId_class-extensionEnd"><path d="M 1,1 V 13 L18,7 Z"></path></marker></defs><defs><marker orient="auto" markerHeight="240" markerWidth="190" refY="7" refX="18" class="marker composition class" id="mermaidSvgId_class-compositionStart"><path d="M 18,7 L9,13 L1,7 L9,1 Z"></path></marker></defs><defs><marker orient="auto" markerHeight="28" markerWidth="20" refY="7" refX="1" class="marker composition class" id="mermaidSvgId_class-compositionEnd"><path d="M 18,7 L9,13 L1,7 L9,1 Z"></path></marker></defs><defs><marker orient="auto" markerHeight="240" markerWidth="190" refY="7" refX="6" class="marker dependency class" id="mermaidSvgId_class-dependencyStart"><path d="M 5,7 L9,13 L1,7 L9,1 Z"></path></marker></defs><defs><marker orient="auto" markerHeight="28" markerWidth="20" refY="7" refX="13" class="marker dependency class" id="mermaidSvgId_class-dependencyEnd"><path d="M 18,7 L9,13 L14,7 L9,1 Z"></path></marker></defs><defs><marker orient="auto" markerHeight="240" markerWidth="190" refY="7" refX="13" class="marker lollipop class" id="mermaidSvgId_class-lollipopStart"><circle r="6" cy="7" cx="7" fill="transparent" stroke="black"></circle></marker></defs><defs><marker orient="auto" markerHeight="240" markerWidth="190" refY="7" refX="1" class="marker lollipop class" id="mermaidSvgId_class-lollipopEnd"><circle r="6" cy="7" cx="7" fill="transparent" stroke="black"></circle></marker></defs></g><g class="subgraphs"></g><g class="nodes"><g transform="translate(337.3583450317383, 164.5)" id="classId-ApplicationUser-36" class="node default"><g class="basic label-container"><path style="" fill="#eee" stroke-width="0" stroke="none" d="M-111.95833587646484 -152.5 L111.95833587646484 -152.5 L111.95833587646484 152.5 L-111.95833587646484 152.5"></path><path style="" fill="none" stroke-width="1.3" stroke="#999" d="M-111.95833587646484 -152.5 C-55.908123641871796 -152.5, 0.14208859272125096 -152.5, 111.95833587646484 -152.5 M-111.95833587646484 -152.5 C-38.76653937837304 -152.5, 34.425257119718765 -152.5, 111.95833587646484 -152.5 M111.95833587646484 -152.5 C111.95833587646484 -45.52606962320991, 111.95833587646484 61.44786075358019, 111.95833587646484 152.5 M111.95833587646484 -152.5 C111.95833587646484 -33.49818700604966, 111.95833587646484 85.50362598790068, 111.95833587646484 152.5 M111.95833587646484 152.5 C36.04723490944083 152.5, -39.86386605758318 152.5, -111.95833587646484 152.5 M111.95833587646484 152.5 C43.98784924663845 152.5, -23.98263738318795 152.5, -111.95833587646484 152.5 M-111.95833587646484 152.5 C-111.95833587646484 31.643754134927406, -111.95833587646484 -89.21249173014519, -111.95833587646484 -152.5 M-111.95833587646484 152.5 C-111.95833587646484 31.305210729300555, -111.95833587646484 -89.88957854139889, -111.95833587646484 -152.5"></path></g><g transform="translate(0, -132.5)" class="annotation-group text"></g><g transform="translate(-59.16666793823242, -132.5)" class="label-group text"><g transform="translate(0,-9.5)" style="font-weight: bolder" class="label"><g><rect style="stroke: none" class="background"></rect><text style="" y="-10.1"><tspan font-weight="" dy="1.1em" y="-0.1em" x="0" class="text-outer-tspan"><tspan font-weight="" class="text-inner-tspan" font-style="normal">ApplicationUser</tspan></tspan></text></g></g></g><g transform="translate(-99.95833587646484, -89.5)" class="members-group text"><g transform="translate(0,-9.5)" style="" class="label"><g><rect style="stroke: none" class="background"></rect><text style="" y="-10.1"><tspan dy="1.1em" y="-0.1em" x="0" class="text-outer-tspan">- String FullName</tspan></text></g></g><g transform="translate(0,12.5)" style="" class="label"><g><rect style="stroke: none" class="background"></rect><text style="" y="-10.1"><tspan dy="1.1em" y="-0.1em" x="0" class="text-outer-tspan">- bool IsAdmin</tspan></text></g></g><g transform="translate(0,34.5)" style="" class="label"><g><rect style="stroke: none" class="background"></rect><text style="" y="-10.1"><tspan dy="1.1em" y="-0.1em" x="0" class="text-outer-tspan">- String Type</tspan></text></g></g><g transform="translate(0,56.5)" style="" class="label"><g><rect style="stroke: none" class="background"></rect><text style="" y="-10.1"><tspan dy="1.1em" y="-0.1em" x="0" class="text-outer-tspan">- String Address</tspan></text></g></g><g transform="translate(0,78.5)" style="" class="label"><g><rect style="stroke: none" class="background"></rect><text style="" y="-10.1"><tspan dy="1.1em" y="-0.1em" x="0" class="text-outer-tspan">- String ContactInfo</tspan></text></g></g></g><g transform="translate(-99.95833587646484, 41.5)" class="methods-group text"><g transform="translate(0,-9.5)" style="" class="label"><g><rect style="stroke: none" class="background"></rect><text style="" y="-10.1"><tspan dy="1.1em" y="-0.1em" x="0" class="text-outer-tspan">+ createUser()</tspan></text></g></g><g transform="translate(0,12.5)" style="" class="label"><g><rect style="stroke: none" class="background"></rect><text style="" y="-10.1"><tspan dy="1.1em" y="-0.1em" x="0" class="text-outer-tspan">+ readUser()</tspan></text></g></g><g transform="translate(0,34.5)" style="" class="label"><g><rect style="stroke: none" class="background"></rect><text style="" y="-10.1"><tspan dy="1.1em" y="-0.1em" x="0" class="text-outer-tspan">+ updateUser()</tspan></text></g></g><g transform="translate(0,56.5)" style="" class="label"><g><rect style="stroke: none" class="background"></rect><text style="" y="-10.1"><tspan dy="1.1em" y="-0.1em" x="0" class="text-outer-tspan">+ deleteUser()</tspan></text></g></g><g transform="translate(0,78.5)" style="" class="label"><g><rect style="stroke: none" class="background"></rect><text style="" y="-10.1"><tspan dy="1.1em" y="-0.1em" x="0" class="text-outer-tspan">+ authenticate()</tspan></text></g></g></g><g style="" class="divider"><path style="" fill="none" stroke-width="1.3" stroke="#999" d="M-111.95833587646484 -109.5 C-41.28430251789068 -109.5, 29.389730840683484 -109.5, 111.95833587646484 -109.5 M-111.95833587646484 -109.5 C-52.811391606885365 -109.5, 6.335552662694113 -109.5, 111.95833587646484 -109.5"></path></g><g style="" class="divider"><path style="" fill="none" stroke-width="1.3" stroke="#999" d="M-111.95833587646484 21.5 C-63.20196923230319 21.5, -14.44560258814154 21.5, 111.95833587646484 21.5 M-111.95833587646484 21.5 C-66.24264032934232 21.5, -20.5269447822198 21.5, 111.95833587646484 21.5"></path></g></g><g transform="translate(101.20000457763672, 208.5)" id="classId-Role-37" class="node default"><g class="basic label-container"><path style="" fill="#eee" stroke-width="0" stroke="none" d="M-89.20000457763672 -108.5 L89.20000457763672 -108.5 L89.20000457763672 108.5 L-89.20000457763672 108.5"></path><path style="" fill="none" stroke-width="1.3" stroke="#999" d="M-89.20000457763672 -108.5 C-40.21024205492194 -108.5, 8.779520467792835 -108.5, 89.20000457763672 -108.5 M-89.20000457763672 -108.5 C-34.60718373551785 -108.5, 19.98563710660102 -108.5, 89.20000457763672 -108.5 M89.20000457763672 -108.5 C89.20000457763672 -61.592443816804625, 89.20000457763672 -14.68488763360925, 89.20000457763672 108.5 M89.20000457763672 -108.5 C89.20000457763672 -39.38618163769675, 89.20000457763672 29.727636724606498, 89.20000457763672 108.5 M89.20000457763672 108.5 C49.94959614220697 108.5, 10.699187706777224 108.5, -89.20000457763672 108.5 M89.20000457763672 108.5 C35.88516316365822 108.5, -17.42967825032028 108.5, -89.20000457763672 108.5 M-89.20000457763672 108.5 C-89.20000457763672 35.31821626145333, -89.20000457763672 -37.86356747709334, -89.20000457763672 -108.5 M-89.20000457763672 108.5 C-89.20000457763672 64.76156943530725, -89.20000457763672 21.02313887061449, -89.20000457763672 -108.5"></path></g><g transform="translate(0, -88.5)" class="annotation-group text"></g><g transform="translate(-16.366666793823242, -88.5)" class="label-group text"><g transform="translate(0,-9.5)" style="font-weight: bolder" class="label"><g><rect style="stroke: none" class="background"></rect><text style="" y="-10.1"><tspan font-weight="" dy="1.1em" y="-0.1em" x="0" class="text-outer-tspan"><tspan font-weight="" class="text-inner-tspan" font-style="normal">Role</tspan></tspan></text></g></g></g><g transform="translate(-77.20000457763672, -45.5)" class="members-group text"><g transform="translate(0,-9.5)" style="" class="label"><g><rect style="stroke: none" class="background"></rect><text style="" y="-10.1"><tspan dy="1.1em" y="-0.1em" x="0" class="text-outer-tspan">- String Name</tspan></text></g></g><g transform="translate(0,12.5)" style="" class="label"><g><rect style="stroke: none" class="background"></rect><text style="" y="-10.1"><tspan dy="1.1em" y="-0.1em" x="0" class="text-outer-tspan">- String Description</tspan></text></g></g></g><g transform="translate(-77.20000457763672, 19.5)" class="methods-group text"><g transform="translate(0,-9.5)" style="" class="label"><g><rect style="stroke: none" class="background"></rect><text style="" y="-10.1"><tspan dy="1.1em" y="-0.1em" x="0" class="text-outer-tspan">+ createRole()</tspan></text></g></g><g transform="translate(0,12.5)" style="" class="label"><g><rect style="stroke: none" class="background"></rect><text style="" y="-10.1"><tspan dy="1.1em" y="-0.1em" x="0" class="text-outer-tspan">+ readRole()</tspan></text></g></g><g transform="translate(0,34.5)" style="" class="label"><g><rect style="stroke: none" class="background"></rect><text style="" y="-10.1"><tspan dy="1.1em" y="-0.1em" x="0" class="text-outer-tspan">+ updateRole()</tspan></text></g></g><g transform="translate(0,56.5)" style="" class="label"><g><rect style="stroke: none" class="background"></rect><text style="" y="-10.1"><tspan dy="1.1em" y="-0.1em" x="0" class="text-outer-tspan">+ deleteRole()</tspan></text></g></g></g><g style="" class="divider"><path style="" fill="none" stroke-width="1.3" stroke="#999" d="M-89.20000457763672 -65.5 C-32.87477382304552 -65.5, 23.450456931545673 -65.5, 89.20000457763672 -65.5 M-89.20000457763672 -65.5 C-26.031604248668643 -65.5, 37.13679608029943 -65.5, 89.20000457763672 -65.5"></path></g><g style="" class="divider"><path style="" fill="none" stroke-width="1.3" stroke="#999" d="M-89.20000457763672 -0.5 C-31.201362163178516 -0.5, 26.797280251279687 -0.5, 89.20000457763672 -0.5 M-89.20000457763672 -0.5 C-39.532175350845094 -0.5, 10.135653875946531 -0.5, 89.20000457763672 -0.5"></path></g></g><g transform="translate(134.12222798665366, 507.5)" id="classId-UserRole-38" class="node default"><g class="basic label-container"><path style="" fill="#eee" stroke-width="0" stroke="none" d="M-98.76667022705078 -97.5 L98.76667022705078 -97.5 L98.76667022705078 97.5 L-98.76667022705078 97.5"></path><path style="" fill="none" stroke-width="1.3" stroke="#999" d="M-98.76667022705078 -97.5 C-55.109617313659356 -97.5, -11.452564400267931 -97.5, 98.76667022705078 -97.5 M-98.76667022705078 -97.5 C-43.734685641098984 -97.5, 11.297298944852812 -97.5, 98.76667022705078 -97.5 M98.76667022705078 -97.5 C98.76667022705078 -33.04824509806291, 98.76667022705078 31.403509803874186, 98.76667022705078 97.5 M98.76667022705078 -97.5 C98.76667022705078 -58.14100966862, 98.76667022705078 -18.78201933724, 98.76667022705078 97.5 M98.76667022705078 97.5 C44.625251271179856 97.5, -9.51616768469107 97.5, -98.76667022705078 97.5 M98.76667022705078 97.5 C35.42905568184305 97.5, -27.908558863364675 97.5, -98.76667022705078 97.5 M-98.76667022705078 97.5 C-98.76667022705078 46.44354885276993, -98.76667022705078 -4.612902294460142, -98.76667022705078 -97.5 M-98.76667022705078 97.5 C-98.76667022705078 44.37529958717377, -98.76667022705078 -8.749400825652458, -98.76667022705078 -97.5"></path></g><g transform="translate(0, -77.5)" class="annotation-group text"></g><g transform="translate(-33.25, -77.5)" class="label-group text"><g transform="translate(0,-9.5)" style="font-weight: bolder" class="label"><g><rect style="stroke: none" class="background"></rect><text style="" y="-10.1"><tspan font-weight="" dy="1.1em" y="-0.1em" x="0" class="text-outer-tspan"><tspan font-weight="" class="text-inner-tspan" font-style="normal">UserRole</tspan></tspan></text></g></g></g><g transform="translate(-86.76667022705078, -34.5)" class="members-group text"><g transform="translate(0,-9.5)" style="" class="label"><g><rect style="stroke: none" class="background"></rect><text style="" y="-10.1"><tspan dy="1.1em" y="-0.1em" x="0" class="text-outer-tspan">- String UserId</tspan></text></g></g><g transform="translate(0,12.5)" style="" class="label"><g><rect style="stroke: none" class="background"></rect><text style="" y="-10.1"><tspan dy="1.1em" y="-0.1em" x="0" class="text-outer-tspan">- String RoleId</tspan></text></g></g></g><g transform="translate(-86.76667022705078, 30.5)" class="methods-group text"><g transform="translate(0,-9.5)" style="" class="label"><g><rect style="stroke: none" class="background"></rect><text style="" y="-10.1"><tspan dy="1.1em" y="-0.1em" x="0" class="text-outer-tspan">+ assignRole()</tspan></text></g></g><g transform="translate(0,12.5)" style="" class="label"><g><rect style="stroke: none" class="background"></rect><text style="" y="-10.1"><tspan dy="1.1em" y="-0.1em" x="0" class="text-outer-tspan">+ removeRole()</tspan></text></g></g><g transform="translate(0,34.5)" style="" class="label"><g><rect style="stroke: none" class="background"></rect><text style="" y="-10.1"><tspan dy="1.1em" y="-0.1em" x="0" class="text-outer-tspan">+ getRolesForUser()</tspan></text></g></g></g><g style="" class="divider"><path style="" fill="none" stroke-width="1.3" stroke="#999" d="M-98.76667022705078 -54.5 C-34.59484807177337 -54.5, 29.57697408350404 -54.5, 98.76667022705078 -54.5 M-98.76667022705078 -54.5 C-25.68018448463293 -54.5, 47.40630125778492 -54.5, 98.76667022705078 -54.5"></path></g><g style="" class="divider"><path style="" fill="none" stroke-width="1.3" stroke="#999" d="M-98.76667022705078 10.5 C-22.853895650402038 10.5, 53.058878926246706 10.5, 98.76667022705078 10.5 M-98.76667022705078 10.5 C-28.887064379262327 10.5, 40.99254146852613 10.5, 98.76667022705078 10.5"></path></g></g><g transform="translate(406.5611241658529, 573.5)" id="classId-Product-39" class="node default"><g class="basic label-container"><path style="" fill="#eee" stroke-width="0" stroke="none" d="M-95.6500015258789 -163.5 L95.6500015258789 -163.5 L95.6500015258789 163.5 L-95.6500015258789 163.5"></path><path style="" fill="none" stroke-width="1.3" stroke="#999" d="M-95.6500015258789 -163.5 C-46.61752983806119 -163.5, 2.4149418497565307 -163.5, 95.6500015258789 -163.5 M-95.6500015258789 -163.5 C-52.57198734544379 -163.5, -9.493973165008669 -163.5, 95.6500015258789 -163.5 M95.6500015258789 -163.5 C95.6500015258789 -58.48715001137295, 95.6500015258789 46.525699977254106, 95.6500015258789 163.5 M95.6500015258789 -163.5 C95.6500015258789 -89.2538247475508, 95.6500015258789 -15.007649495101589, 95.6500015258789 163.5 M95.6500015258789 163.5 C22.817712674359456 163.5, -50.014576177159995 163.5, -95.6500015258789 163.5 M95.6500015258789 163.5 C55.954575491424 163.5, 16.259149456969098 163.5, -95.6500015258789 163.5 M-95.6500015258789 163.5 C-95.6500015258789 93.17334916546983, -95.6500015258789 22.84669833093966, -95.6500015258789 -163.5 M-95.6500015258789 163.5 C-95.6500015258789 65.20731451201893, -95.6500015258789 -33.08537097596215, -95.6500015258789 -163.5"></path></g><g transform="translate(0, -143.5)" class="annotation-group text"></g><g transform="translate(-29.266666412353516, -143.5)" class="label-group text"><g transform="translate(0,-9.5)" style="font-weight: bolder" class="label"><g><rect style="stroke: none" class="background"></rect><text style="" y="-10.1"><tspan font-weight="" dy="1.1em" y="-0.1em" x="0" class="text-outer-tspan"><tspan font-weight="" class="text-inner-tspan" font-style="normal">Product</tspan></tspan></text></g></g></g><g transform="translate(-83.6500015258789, -100.5)" class="members-group text"><g transform="translate(0,-9.5)" style="" class="label"><g><rect style="stroke: none" class="background"></rect><text style="" y="-10.1"><tspan dy="1.1em" y="-0.1em" x="0" class="text-outer-tspan">- String Name</tspan></text></g></g><g transform="translate(0,12.5)" style="" class="label"><g><rect style="stroke: none" class="background"></rect><text style="" y="-10.1"><tspan dy="1.1em" y="-0.1em" x="0" class="text-outer-tspan">- String Description</tspan></text></g></g><g transform="translate(0,34.5)" style="" class="label"><g><rect style="stroke: none" class="background"></rect><text style="" y="-10.1"><tspan dy="1.1em" y="-0.1em" x="0" class="text-outer-tspan">- float Price</tspan></text></g></g><g transform="translate(0,56.5)" style="" class="label"><g><rect style="stroke: none" class="background"></rect><text style="" y="-10.1"><tspan dy="1.1em" y="-0.1em" x="0" class="text-outer-tspan">- int CategoryId</tspan></text></g></g></g><g transform="translate(-83.6500015258789, 8.5)" class="methods-group text"><g transform="translate(0,-9.5)" style="" class="label"><g><rect style="stroke: none" class="background"></rect><text style="" y="-10.1"><tspan dy="1.1em" y="-0.1em" x="0" class="text-outer-tspan">+ createProduct()</tspan></text></g></g><g transform="translate(0,12.5)" style="" class="label"><g><rect style="stroke: none" class="background"></rect><text style="" y="-10.1"><tspan dy="1.1em" y="-0.1em" x="0" class="text-outer-tspan">+ readProduct()</tspan></text></g></g><g transform="translate(0,34.5)" style="" class="label"><g><rect style="stroke: none" class="background"></rect><text style="" y="-10.1"><tspan dy="1.1em" y="-0.1em" x="0" class="text-outer-tspan">+ updateProduct()</tspan></text></g></g><g transform="translate(0,56.5)" style="" class="label"><g><rect style="stroke: none" class="background"></rect><text style="" y="-10.1"><tspan dy="1.1em" y="-0.1em" x="0" class="text-outer-tspan">+ deleteProduct()</tspan></text></g></g><g transform="translate(0,78.5)" style="" class="label"><g><rect style="stroke: none" class="background"></rect><text style="" y="-10.1"><tspan dy="1.1em" y="-0.1em" x="0" class="text-outer-tspan">+ calculatePrice()</tspan></text></g></g><g transform="translate(0,100.5)" style="" class="label"><g><rect style="stroke: none" class="background"></rect><text style="" y="-10.1"><tspan dy="1.1em" y="-0.1em" x="0" class="text-outer-tspan">+ getMaxPrice()</tspan></text></g></g><g transform="translate(0,122.5)" style="" class="label"><g><rect style="stroke: none" class="background"></rect><text style="" y="-10.1"><tspan dy="1.1em" y="-0.1em" x="0" class="text-outer-tspan">+ getMinPrice()</tspan></text></g></g></g><g style="" class="divider"><path style="" fill="none" stroke-width="1.3" stroke="#999" d="M-95.6500015258789 -120.5 C-31.204281290266294 -120.5, 33.24143894534632 -120.5, 95.6500015258789 -120.5 M-95.6500015258789 -120.5 C-24.03072585852253 -120.5, 47.58854980883385 -120.5, 95.6500015258789 -120.5"></path></g><g style="" class="divider"><path style="" fill="none" stroke-width="1.3" stroke="#999" d="M-95.6500015258789 -11.5 C-20.42200780245578 -11.5, 54.805985920967345 -11.5, 95.6500015258789 -11.5 M-95.6500015258789 -11.5 C-44.350522969877616 -11.5, 6.948955586123674 -11.5, 95.6500015258789 -11.5"></path></g></g><g transform="translate(582.2916870117188, 208.5)" id="classId-Category-40" class="node default"><g class="basic label-container"><path style="" fill="#eee" stroke-width="0" stroke="none" d="M-97.97500610351562 -108.5 L97.97500610351562 -108.5 L97.97500610351562 108.5 L-97.97500610351562 108.5"></path><path style="" fill="none" stroke-width="1.3" stroke="#999" d="M-97.97500610351562 -108.5 C-58.177106843160956 -108.5, -18.379207582806288 -108.5, 97.97500610351562 -108.5 M-97.97500610351562 -108.5 C-49.32463724394413 -108.5, -0.6742683843726383 -108.5, 97.97500610351562 -108.5 M97.97500610351562 -108.5 C97.97500610351562 -30.05136201418594, 97.97500610351562 48.39727597162812, 97.97500610351562 108.5 M97.97500610351562 -108.5 C97.97500610351562 -37.627005684974904, 97.97500610351562 33.24598863005019, 97.97500610351562 108.5 M97.97500610351562 108.5 C25.347546909107052 108.5, -47.27991228530152 108.5, -97.97500610351562 108.5 M97.97500610351562 108.5 C46.714711795464716 108.5, -4.5455825125861935 108.5, -97.97500610351562 108.5 M-97.97500610351562 108.5 C-97.97500610351562 23.857560541598104, -97.97500610351562 -60.78487891680379, -97.97500610351562 -108.5 M-97.97500610351562 108.5 C-97.97500610351562 29.168969049775455, -97.97500610351562 -50.16206190044909, -97.97500610351562 -108.5"></path></g><g transform="translate(0, -88.5)" class="annotation-group text"></g><g transform="translate(-33.150001525878906, -88.5)" class="label-group text"><g transform="translate(0,-9.5)" style="font-weight: bolder" class="label"><g><rect style="stroke: none" class="background"></rect><text style="" y="-10.1"><tspan font-weight="" dy="1.1em" y="-0.1em" x="0" class="text-outer-tspan"><tspan font-weight="" class="text-inner-tspan" font-style="normal">Category</tspan></tspan></text></g></g></g><g transform="translate(-85.97500610351562, -45.5)" class="members-group text"><g transform="translate(0,-9.5)" style="" class="label"><g><rect style="stroke: none" class="background"></rect><text style="" y="-10.1"><tspan dy="1.1em" y="-0.1em" x="0" class="text-outer-tspan">- String Name</tspan></text></g></g><g transform="translate(0,12.5)" style="" class="label"><g><rect style="stroke: none" class="background"></rect><text style="" y="-10.1"><tspan dy="1.1em" y="-0.1em" x="0" class="text-outer-tspan">- String Description</tspan></text></g></g></g><g transform="translate(-85.97500610351562, 19.5)" class="methods-group text"><g transform="translate(0,-9.5)" style="" class="label"><g><rect style="stroke: none" class="background"></rect><text style="" y="-10.1"><tspan dy="1.1em" y="-0.1em" x="0" class="text-outer-tspan">+ createCategory()</tspan></text></g></g><g transform="translate(0,12.5)" style="" class="label"><g><rect style="stroke: none" class="background"></rect><text style="" y="-10.1"><tspan dy="1.1em" y="-0.1em" x="0" class="text-outer-tspan">+ readCategory()</tspan></text></g></g><g transform="translate(0,34.5)" style="" class="label"><g><rect style="stroke: none" class="background"></rect><text style="" y="-10.1"><tspan dy="1.1em" y="-0.1em" x="0" class="text-outer-tspan">+ updateCategory()</tspan></text></g></g><g transform="translate(0,56.5)" style="" class="label"><g><rect style="stroke: none" class="background"></rect><text style="" y="-10.1"><tspan dy="1.1em" y="-0.1em" x="0" class="text-outer-tspan">+ deleteCategory()</tspan></text></g></g></g><g style="" class="divider"><path style="" fill="none" stroke-width="1.3" stroke="#999" d="M-97.97500610351562 -65.5 C-57.83441122655603 -65.5, -17.693816349596432 -65.5, 97.97500610351562 -65.5 M-97.97500610351562 -65.5 C-39.572090772674834 -65.5, 18.830824558165958 -65.5, 97.97500610351562 -65.5"></path></g><g style="" class="divider"><path style="" fill="none" stroke-width="1.3" stroke="#999" d="M-97.97500610351562 -0.5 C-48.37307244472383 -0.5, 1.2288612140679618 -0.5, 97.97500610351562 -0.5 M-97.97500610351562 -0.5 C-29.832007034518114 -0.5, 38.3109920344794 -0.5, 97.97500610351562 -0.5"></path></g></g><g transform="translate(406.5611241658529, 982.5)" id="classId-ProductEntity-41" class="node default"><g class="basic label-container"><path style="" fill="#eee" stroke-width="0" stroke="none" d="M-110.67916870117188 -152.5 L110.67916870117188 -152.5 L110.67916870117188 152.5 L-110.67916870117188 152.5"></path><path style="" fill="none" stroke-width="1.3" stroke="#999" d="M-110.67916870117188 -152.5 C-26.482407741369627 -152.5, 57.71435321843262 -152.5, 110.67916870117188 -152.5 M-110.67916870117188 -152.5 C-29.283366215769718 -152.5, 52.11243626963244 -152.5, 110.67916870117188 -152.5 M110.67916870117188 -152.5 C110.67916870117188 -77.67785029313788, 110.67916870117188 -2.855700586275759, 110.67916870117188 152.5 M110.67916870117188 -152.5 C110.67916870117188 -90.29252733484921, 110.67916870117188 -28.085054669698437, 110.67916870117188 152.5 M110.67916870117188 152.5 C41.976996419737844 152.5, -26.725175861696187 152.5, -110.67916870117188 152.5 M110.67916870117188 152.5 C64.08536173751196 152.5, 17.49155477385206 152.5, -110.67916870117188 152.5 M-110.67916870117188 152.5 C-110.67916870117188 81.4402444315548, -110.67916870117188 10.380488863109605, -110.67916870117188 -152.5 M-110.67916870117188 152.5 C-110.67916870117188 64.92588949723326, -110.67916870117188 -22.648221005533486, -110.67916870117188 -152.5"></path></g><g transform="translate(0, -132.5)" class="annotation-group text"></g><g transform="translate(-51.54166793823242, -132.5)" class="label-group text"><g transform="translate(0,-9.5)" style="font-weight: bolder" class="label"><g><rect style="stroke: none" class="background"></rect><text style="" y="-10.1"><tspan font-weight="" dy="1.1em" y="-0.1em" x="0" class="text-outer-tspan"><tspan font-weight="" class="text-inner-tspan" font-style="normal">ProductEntity</tspan></tspan></text></g></g></g><g transform="translate(-98.67916870117188, -89.5)" class="members-group text"><g transform="translate(0,-9.5)" style="" class="label"><g><rect style="stroke: none" class="background"></rect><text style="" y="-10.1"><tspan dy="1.1em" y="-0.1em" x="0" class="text-outer-tspan">- int ProductId</tspan></text></g></g><g transform="translate(0,12.5)" style="" class="label"><g><rect style="stroke: none" class="background"></rect><text style="" y="-10.1"><tspan dy="1.1em" y="-0.1em" x="0" class="text-outer-tspan">- int EntityId</tspan></text></g></g><g transform="translate(0,34.5)" style="" class="label"><g><rect style="stroke: none" class="background"></rect><text style="" y="-10.1"><tspan dy="1.1em" y="-0.1em" x="0" class="text-outer-tspan">- Date DateAdded</tspan></text></g></g><g transform="translate(0,56.5)" style="" class="label"><g><rect style="stroke: none" class="background"></rect><text style="" y="-10.1"><tspan dy="1.1em" y="-0.1em" x="0" class="text-outer-tspan">- float Price</tspan></text></g></g><g transform="translate(0,78.5)" style="" class="label"><g><rect style="stroke: none" class="background"></rect><text style="" y="-10.1"><tspan dy="1.1em" y="-0.1em" x="0" class="text-outer-tspan">- bool IsAvailable</tspan></text></g></g></g><g transform="translate(-98.67916870117188, 41.5)" class="methods-group text"><g transform="translate(0,-9.5)" style="" class="label"><g><rect style="stroke: none" class="background"></rect><text style="" y="-10.1"><tspan dy="1.1em" y="-0.1em" x="0" class="text-outer-tspan">+ createEntity()</tspan></text></g></g><g transform="translate(0,12.5)" style="" class="label"><g><rect style="stroke: none" class="background"></rect><text style="" y="-10.1"><tspan dy="1.1em" y="-0.1em" x="0" class="text-outer-tspan">+ readEntity()</tspan></text></g></g><g transform="translate(0,34.5)" style="" class="label"><g><rect style="stroke: none" class="background"></rect><text style="" y="-10.1"><tspan dy="1.1em" y="-0.1em" x="0" class="text-outer-tspan">+ updateEntity()</tspan></text></g></g><g transform="translate(0,56.5)" style="" class="label"><g><rect style="stroke: none" class="background"></rect><text style="" y="-10.1"><tspan dy="1.1em" y="-0.1em" x="0" class="text-outer-tspan">+ deleteEntity()</tspan></text></g></g><g transform="translate(0,78.5)" style="" class="label"><g><rect style="stroke: none" class="background"></rect><text style="" y="-10.1"><tspan dy="1.1em" y="-0.1em" x="0" class="text-outer-tspan">+ checkAvailability()</tspan></text></g></g></g><g style="" class="divider"><path style="" fill="none" stroke-width="1.3" stroke="#999" d="M-110.67916870117188 -109.5 C-25.2882040445525 -109.5, 60.102760612066874 -109.5, 110.67916870117188 -109.5 M-110.67916870117188 -109.5 C-37.276519810325496 -109.5, 36.12612908052088 -109.5, 110.67916870117188 -109.5"></path></g><g style="" class="divider"><path style="" fill="none" stroke-width="1.3" stroke="#999" d="M-110.67916870117188 21.5 C-49.77173724640847 21.5, 11.135694208354934 21.5, 110.67916870117188 21.5 M-110.67916870117188 21.5 C-46.375921207872636 21.5, 17.927326285426602 21.5, 110.67916870117188 21.5"></path></g></g></g><g class="edges edgePaths"><path marker-end="url(#mermaidSvgId_class-dependencyEnd)" style=";" class="edge-thickness-normal edge-pattern-solid relation" id="id_ApplicationUser_Product_1_0" d="M374.678,317L374.678,404"></path><path marker-end="url(#mermaidSvgId_class-dependencyEnd)" style=";" class="edge-thickness-normal edge-pattern-solid relation" id="id_ApplicationUser_UserRole_2_0" d="M300.039,317L300.039,328.75C300.039,340.5,300.039,364,299.677,376.221C299.315,388.443,298.591,389.386,297.758,390.219C296.925,391.052,295.982,391.776,275.011,392.138C254.041,392.5,213.043,392.5,192.072,392.862C171.102,393.224,170.159,393.948,169.325,394.781C168.492,395.614,167.768,396.557,167.406,398.112C167.044,399.667,167.044,401.833,167.044,402.917L167.044,404"></path><path marker-end="url(#mermaidSvgId_class-dependencyEnd)" style=";" class="edge-thickness-normal edge-pattern-solid relation" id="id_Role_UserRole_3_0" d="M101.2,317L101.2,404"></path><path marker-end="url(#mermaidSvgId_class-dependencyEnd)" style=";" class="edge-thickness-normal edge-pattern-solid relation" id="id_Category_Product_4_0" d="M582.292,317L582.292,328.75C582.292,340.5,582.292,364,581.93,376.221C581.568,388.443,580.844,389.386,580.011,390.219C579.177,391.052,578.234,391.776,555.455,392.138C532.676,392.5,488.06,392.5,465.281,392.862C442.502,393.224,441.559,393.948,440.726,394.781C439.892,395.614,439.168,396.557,438.806,398.112C438.444,399.667,438.444,401.833,438.444,402.917L438.444,404"></path><path marker-end="url(#mermaidSvgId_class-dependencyEnd)" style=";" class="edge-thickness-normal edge-pattern-solid relation" id="id_Product_ProductEntity_5_0" d="M406.561,737L406.561,824"></path></g><g class="edgeLabels"><g transform="translate(374.53612391153973, 363.5)" class="edgeLabel"><g transform="translate(-19.858333587646484, -11.5)" class="label"><g><rect height="23" width="39.71666717529297" y="-0.9999996423721313" x="-2" style="" class="background"></rect><text style="" y="-10.1"><tspan dy="1.1em" y="-0.1em" x="0" class="text-outer-tspan"><tspan font-weight="normal" class="text-inner-tspan" font-style="normal">owns</tspan></tspan></text></g></g></g><g transform="translate(299.85556634267175, 363.5)" class="edgeLabel"><g transform="translate(-13.816666603088379, -11.5)" class="label"><g><rect height="23" width="27.633333206176758" y="-0.9999996423721313" x="-2" style="" class="background"></rect><text style="" y="-10.1"><tspan dy="1.1em" y="-0.1em" x="0" class="text-outer-tspan"><tspan font-weight="normal" class="text-inner-tspan" font-style="normal">has</tspan></tspan></text></g></g></g><g transform="translate(100.75000381469727, 363.5)" class="edgeLabel"><g transform="translate(-28.049999237060547, -11.5)" class="label"><g><rect height="23" width="56.099998474121094" y="-0.9999996423721313" x="-2" style="" class="background"></rect><text style="" y="-10.1"><tspan dy="1.1em" y="-0.1em" x="0" class="text-outer-tspan"><tspan font-weight="normal" class="text-inner-tspan" font-style="normal">defines</tspan></tspan></text></g></g></g><g transform="translate(582.2083530426025, 363.5)" class="edgeLabel"><g transform="translate(-31.41666603088379, -11.5)" class="label"><g><rect height="23" width="62.83333206176758" y="-0.9999996423721313" x="-2" style="" class="background"></rect><text style="" y="-10.1"><tspan dy="1.1em" y="-0.1em" x="0" class="text-outer-tspan"><tspan font-weight="normal" class="text-inner-tspan" font-style="normal">includes</tspan></tspan></text></g></g></g><g transform="translate(406.4611237843832, 783.5)" class="edgeLabel"><g transform="translate(-31.899999618530273, -11.5)" class="label"><g><rect height="23" width="63.79999923706055" y="-0.9999996423721313" x="-2" style="" class="background"></rect><text style="" y="-10.1"><tspan dy="1.1em" y="-0.1em" x="0" class="text-outer-tspan"><tspan font-weight="normal" class="text-inner-tspan" font-style="normal">contains</tspan></tspan></text></g></g></g><g transform="translate(359.67779016194663, 334.4999998611886)" class="edgeTerminals"><g transform="translate(-6, -6)" class="inner"><text style=""><tspan class="row" x="0" dy="1em" xml:space="preserve">1</tspan></text></g></g><g transform="translate(285.0388998697917, 334.5000001116071)" class="edgeTerminals"><g transform="translate(-6, -6)" class="inner"><text style=""><tspan class="row" x="0" dy="1em" xml:space="preserve">1</tspan></text></g></g><g transform="translate(86.20000228881848, 334.4999980381557)" class="edgeTerminals"><g transform="translate(-6, -6)" class="inner"><text style=""><tspan class="row" x="0" dy="1em" xml:space="preserve">1</tspan></text></g></g><g transform="translate(567.2916885058594, 334.50000128069195)" class="edgeTerminals"><g transform="translate(-6, -6)" class="inner"><text style=""><tspan class="row" x="0" dy="1em" xml:space="preserve">1</tspan></text></g></g><g transform="translate(391.56112208292654, 754.4999982146345)" class="edgeTerminals"><g transform="translate(-6, -6)" class="inner"><text style=""><tspan class="row" x="0" dy="1em" xml:space="preserve">1</tspan></text></g></g><g transform="translate(384.67779016194663, 387.4999998611886)" class="edgeTerminals"><g transform="translate(-5, -6)" class="inner"></g><text style=""><tspan class="row" x="0" dy="1em" xml:space="preserve">*</tspan></text></g><g transform="translate(181.40105283858557, 406.85660129484614)" class="edgeTerminals"><g transform="translate(-5, -6)" class="inner"></g><text style=""><tspan class="row" x="0" dy="1em" xml:space="preserve">*</tspan></text></g><g transform="translate(111.20000228881823, 387.4999980381557)" class="edgeTerminals"><g transform="translate(-5, -6)" class="inner"></g><text style=""><tspan class="row" x="0" dy="1em" xml:space="preserve">*</tspan></text></g><g transform="translate(452.80106011798057, 406.85660232152213)" class="edgeTerminals"><g transform="translate(-5, -6)" class="inner"></g><text style=""><tspan class="row" x="0" dy="1em" xml:space="preserve">*</tspan></text></g><g transform="translate(416.5611220829263, 807.4999982146345)" class="edgeTerminals"><g transform="translate(-5, -6)" class="inner"></g><text style=""><tspan class="row" x="0" dy="1em" xml:space="preserve">*</tspan></text></g></g></svg>